<svg xmlns="http://www.w3.org/2000/svg" version="1.1" xmlns:xlink="http://www.w3.org/1999/xlink" xmlns:svgjs="http://svgjs.dev/svgjs" width="1000" height="750" viewBox="0 0 1000 750"><rect width="1000" height="750" fill="#046380"></rect><g transform="matrix(0.834,0,0,0.834,82.49454545454546,115.4193570850203)"><svg viewBox="0 0 396 247" data-background-color="#046380" preserveAspectRatio="xMidYMid meet" height="623" width="1000" xmlns="http://www.w3.org/2000/svg" xmlns:xlink="http://www.w3.org/1999/xlink"><g id="tight-bounds" transform="matrix(1,0,0,1,0.2400000000000091,-0.09999999999999432)"><svg viewBox="0 0 395.52 247.2" height="247.2" width="395.52"><g><svg></svg></g><g><svg viewBox="0 0 395.52 247.2" height="247.2" width="395.52"><g transform="matrix(1,0,0,1,142.99962929577464,47.215199999999996)"><svg viewBox="0 0 109.52074140845072 152.7696" height="152.7696" width="109.52074140845072"><g><svg viewBox="0 0 109.52074140845072 152.7696" height="152.7696" width="109.52074140845072"><g><svg viewBox="0 0 109.52074140845072 152.7696" height="152.7696" width="109.52074140845072"><g><svg viewBox="0 0 109.52074140845072 152.7696" height="152.7696" width="109.52074140845072"><g id="textblocktransform"><svg viewBox="0 0 109.52074140845072 152.7696" height="152.7696" width="109.52074140845072" id="textblock"><g><svg viewBox="0 0 109.52074140845072 152.7696" height="152.7696" width="109.52074140845072"><g transform="matrix(1,0,0,1,0,0)"><svg width="109.52074140845072" viewBox="2.0999999046325684 -34.900001525878906 25.44999885559082 35.5" height="152.7696" data-palette-color="#ffffff"><path d="M15.6 0.6Q2.1 0.6 2.1-17.15L2.1-17.15Q2.1-34.9 15.6-34.9L15.6-34.9Q21.05-34.9 24.3-31.58 27.55-28.25 27.55-21.9L27.55-21.9 23.05-21.9Q23.05-26.3 21.05-28.58 19.05-30.85 15.6-30.85L15.6-30.85Q11.1-30.85 8.9-27.75 6.7-24.65 6.7-18.4L6.7-18.4 6.7-15.9Q6.7-9.65 8.9-6.55 11.1-3.45 15.6-3.45L15.6-3.45Q19.15-3.45 21.18-5.7 23.2-7.95 23.2-12.3L23.2-12.3 27.55-12.3Q27.55-5.9 24.33-2.65 21.1 0.6 15.6 0.6L15.6 0.6Z" opacity="1" transform="matrix(1,0,0,1,0,0)" fill="#ffffff" class="wordmark-text-0" data-fill-palette-color="primary" id="text-0"></path></svg></g></svg></g></svg></g></svg></g></svg></g></svg></g></svg></g><path d="M325.301 41.215L325.301 0 78.101 0 78.101 247.2 325.301 247.2 325.301 205.985 311.524 205.985 311.524 233.423 91.878 233.423 91.878 13.777 311.524 13.777 311.524 41.215Z" fill="#ffffff" stroke="transparent" data-fill-palette-color="primary"></path></svg></g><defs></defs></svg><rect width="395.52" height="247.2" fill="none" stroke="none" visibility="hidden"></rect></g></svg></g></svg>